<svg width="14.000000" height="14.000000" viewBox="0 0 14 14" fill="currentColor" xmlns="http://www.w3.org/2000/svg" xmlns:xlink="http://www.w3.org/1999/xlink">
	<path id="Vector" d="M0.11 5.7C-0.11 5.49 0.01 5.1 0.31 5.06L4.59 4.53C4.71 4.51 4.82 4.43 4.87 4.31L6.67 0.21C6.8 -0.08 7.19 -0.08 7.32 0.21L9.12 4.31C9.17 4.43 9.28 4.51 9.4 4.53L13.68 5.06C13.98 5.1 14.1 5.49 13.88 5.7L10.72 8.77C10.63 8.86 10.59 8.99 10.61 9.12L11.45 13.55C11.51 13.86 11.19 14.1 10.93 13.95L7.17 11.74C7.06 11.68 6.93 11.68 6.82 11.74L3.06 13.95C2.8 14.1 2.48 13.86 2.54 13.55L3.38 9.12C3.4 8.99 3.36 8.86 3.27 8.77L0.11 5.7Z" fill="currentColor" fill-opacity="1.000000" fill-rule="nonzero"/>
</svg>
