<svg width="18.000000" height="17.999939" viewBox="0 0 18 17.9999" fill="none" xmlns="http://www.w3.org/2000/svg" xmlns:xlink="http://www.w3.org/1999/xlink">
	<desc>
			Created with Pixso.
	</desc>
	<defs/>
	<path id="Vector" d="M11.46 9.33L11.46 9.33C11.29 9.5 11.2 9.58 11.14 9.68C11.09 9.77 11.05 9.86 11.02 9.96C11 10.08 11 10.2 11 10.43L11 14.68C11 15.03 10.99 15.21 10.94 15.36C10.89 15.5 10.81 15.63 10.71 15.73C10.59 15.85 10.43 15.92 10.11 16.08L9.31 16.47C8.54 16.85 8.16 17.03 7.85 16.99C7.58 16.95 7.33 16.8 7.18 16.58C7 16.33 7 15.91 7 15.07L7 10.43C7 10.19 7 10.08 6.97 9.96C6.94 9.86 6.9 9.77 6.85 9.68C6.79 9.58 6.7 9.5 6.53 9.33L1.46 4.38C1.29 4.21 1.2 4.13 1.14 4.03C1.09 3.94 1.05 3.85 1.02 3.75C1 3.64 1 3.52 1 3.28L1 2.56C1 2.01 1 1.74 1.1 1.53C1.2 1.34 1.35 1.2 1.54 1.1C1.75 1 2.03 1 2.59 1L15.39 1C15.95 1 16.24 1 16.45 1.1C16.64 1.2 16.79 1.34 16.89 1.53C16.99 1.74 17 2.01 17 2.56L17 3.29C17 3.52 17 3.64 16.97 3.75C16.94 3.85 16.9 3.94 16.85 4.03C16.79 4.13 16.7 4.21 16.53 4.38L11.46 9.33Z" stroke="#000000" stroke-opacity="1.000000" stroke-width="2.000000" stroke-linejoin="round"/>
</svg>
