<svg width="16.000000" height="16.000000" viewBox="0 0 16 16" fill="none" xmlns="http://www.w3.org/2000/svg" xmlns:xlink="http://www.w3.org/1999/xlink">
	<desc>
			Created with Pixso.
	</desc>
	<defs/>
	<path id="path" d="M11.34 0.58L9.83 2.1L13.89 6.16L15.41 4.65C16.19 3.87 16.19 2.6 15.41 1.82L14.18 0.58C13.39 -0.2 12.12 -0.2 11.34 0.58ZM9.12 2.8L1.83 10.1C1.5 10.42 1.26 10.83 1.13 11.27L0.03 15.03C-0.05 15.3 0.02 15.58 0.21 15.78C0.41 15.97 0.69 16.04 0.96 15.97L4.72 14.86C5.16 14.73 5.56 14.49 5.89 14.16L13.19 6.87L9.12 2.8Z" fill="#FFFFFF" fill-opacity="1.000000" fill-rule="nonzero"/>
</svg>
