<svg width="20.003906" height="18.000000" viewBox="0 0 20.0039 18" fill="none" xmlns="http://www.w3.org/2000/svg" xmlns:xlink="http://www.w3.org/1999/xlink">
	<desc>
			Created with Pixso.
	</desc>
	<defs/>
	<path id="Vector" d="M1 4.2C1 3.08 1 2.51 1.21 2.09C1.4 1.71 1.71 1.4 2.09 1.21C2.51 1 3.08 1 4.2 1L15.8 1C16.92 1 17.48 1 17.9 1.21C18.28 1.4 18.59 1.71 18.78 2.09C19 2.51 19 3.07 19 4.19L19 13.8C19 14.28 19 14.66 18.98 14.97C18.95 15.38 18.9 15.66 18.78 15.9C18.59 16.28 18.28 16.59 17.9 16.78C17.48 17 16.92 17 15.8 17L4.19 17C3.07 17 2.51 17 2.09 16.78C1.71 16.59 1.4 16.28 1.21 15.9C1.01 15.5 1 14.98 1 14C1 13.93 1 13.86 1 13.8L1 4.2ZM1 14L5.76 8.43L5.76 8.43C6.19 7.94 6.4 7.69 6.65 7.6C6.87 7.52 7.11 7.53 7.33 7.61C7.58 7.7 7.79 7.95 8.21 8.45L10.88 11.65C11.26 12.12 11.46 12.35 11.69 12.44C11.9 12.53 12.13 12.54 12.35 12.47C12.59 12.4 12.8 12.19 13.23 11.76L13.73 11.26C14.17 10.82 14.39 10.6 14.63 10.53C14.85 10.47 15.08 10.48 15.29 10.57C15.53 10.67 15.73 10.91 16.11 11.39L18.98 14.97M18.98 14.97L19 14.99M12 6C12 5.44 12.44 5 13 5C13.55 5 14 5.44 14 6C14 6.55 13.55 7 13 7C12.44 7 12 6.55 12 6Z" stroke="currentColor" stroke-opacity="1.000000" stroke-width="2.000000" stroke-linejoin="round" stroke-linecap="round"/>
</svg>
