<svg width="18.000000" height="20.000000" viewBox="0 0 18 20" fill="none" xmlns="http://www.w3.org/2000/svg" xmlns:xlink="http://www.w3.org/1999/xlink">
	<desc>
			Created with Pixso.
	</desc>
	<defs/>
	<path id="Vector" d="M1 7L17 7M13 1L13 3M5 1L5 3M5 3L13 3L13.8 3C14.92 3 15.47 3 15.9 3.21C16.28 3.4 16.59 3.71 16.78 4.09C17 4.51 17 5.07 17 6.19L17 7L17 15.8C17 16.92 17 17.48 16.78 17.9C16.59 18.28 16.28 18.59 15.9 18.78C15.48 19 14.92 19 13.8 19L4.19 19C3.07 19 2.51 19 2.09 18.78C1.71 18.59 1.4 18.28 1.21 17.9C1 17.48 1 16.92 1 15.8L1 7L1 6.2C1 5.08 1 4.51 1.21 4.09C1.4 3.71 1.71 3.4 2.09 3.21C2.51 3 3.08 3 4.2 3L5 3Z" stroke="currentColor" stroke-opacity="1.000000" stroke-width="2.000000" stroke-linejoin="round" stroke-linecap="round"/>
</svg>
