<svg width="20.000000" height="20.000244" viewBox="0 0 20 20.0002" fill="none" xmlns="http://www.w3.org/2000/svg" xmlns:xlink="http://www.w3.org/1999/xlink">
	<desc>
			Created with Pixso.
	</desc>
	<defs/>
	<path id="Vector" d="M4.2 1C3.08 1 2.51 1 2.09 1.21C1.71 1.4 1.4 1.71 1.21 2.09C1 2.51 1 3.08 1 4.2L1 15.8C1 16.92 1 17.47 1.21 17.9C1.4 18.28 1.71 18.59 2.09 18.78C2.51 19 3.07 19 4.19 19L5 19L15 19L15.8 19C16.92 19 17.48 19 17.9 18.78C18.28 18.59 18.59 18.28 18.78 17.9C19 17.48 19 16.92 19 15.8L19 7.21C19 6.77 19 6.54 18.95 6.33C18.9 6.13 18.83 5.95 18.74 5.78C18.63 5.59 18.48 5.43 18.19 5.1L15.43 2.04C15.09 1.66 14.92 1.47 14.71 1.33C14.53 1.2 14.32 1.11 14.1 1.06C13.86 1 13.59 1 13.07 1L4.2 1ZM5 19L5 15.2C5 14.08 5 13.51 5.21 13.09C5.4 12.71 5.71 12.4 6.09 12.21C6.51 12 7.08 12 8.2 12L11.8 12C12.92 12 13.47 12 13.9 12.21C14.28 12.4 14.59 12.71 14.78 13.09C15 13.51 15 14.07 15 15.19L15 19M13 5L7 5" stroke="currentColor" stroke-opacity="1.000000" stroke-width="2.000000" stroke-linejoin="round" stroke-linecap="round"/>
</svg>
