<svg width="10.000000" height="16.000000" viewBox="0 0 10 16" fill="none" xmlns="http://www.w3.org/2000/svg" xmlns:xlink="http://www.w3.org/1999/xlink">
	<desc>
			Created with Pixso.
	</desc>
	<defs/>
	<path id="Vector" d="M7 14C7 13.44 7.44 13 8 13C8.55 13 9 13.44 9 14C9 14.55 8.55 15 8 15C7.44 15 7 14.55 7 14ZM1 14C1 13.44 1.44 13 2 13C2.55 13 3 13.44 3 14C3 14.55 2.55 15 2 15C1.44 15 1 14.55 1 14ZM7 8C7 7.44 7.44 7 8 7C8.55 7 9 7.44 9 8C9 8.55 8.55 9 8 9C7.44 9 7 8.55 7 8ZM1 8C1 7.44 1.44 7 2 7C2.55 7 3 7.44 3 8C3 8.55 2.55 9 2 9C1.44 9 1 8.55 1 8ZM7 2C7 1.44 7.44 1 8 1C8.55 1 9 1.44 9 2C9 2.55 8.55 3 8 3C7.44 3 7 2.55 7 2ZM1 2C1 1.44 1.44 1 2 1C2.55 1 3 1.44 3 2C3 2.55 2.55 3 2 3C1.44 3 1 2.55 1 2Z" stroke="#B2B1B1" stroke-opacity="1.000000" stroke-width="2.000000" stroke-linejoin="round"/>
</svg>
