<svg width="21.655396" height="20.741638" viewBox="0 0 21.6554 20.7416" fill="none" xmlns="http://www.w3.org/2000/svg" xmlns:xlink="http://www.w3.org/1999/xlink">
	<desc>
			Created with Pixso.
	</desc>
	<defs/>
	<path id="Vector" d="M1.16 8.64L5.6 12.74C5.72 12.86 5.78 13.04 5.75 13.21L4.57 19.14C4.49 19.56 4.93 19.88 5.3 19.67L10.58 16.72C10.73 16.63 10.92 16.63 11.07 16.72L16.34 19.67C16.71 19.88 17.16 19.56 17.08 19.14L15.9 13.21C15.87 13.04 15.92 12.86 16.05 12.74L20.49 8.64C20.8 8.35 20.63 7.82 20.21 7.77L14.2 7.06C14.03 7.04 13.88 6.93 13.81 6.78L11.28 1.29C11.1 0.9 10.55 0.9 10.37 1.29L7.84 6.78C7.76 6.93 7.61 7.04 7.44 7.06L1.44 7.77C1.01 7.82 0.84 8.35 1.16 8.64Z" stroke="#B2B1B1" stroke-opacity="1.000000" stroke-width="2.000000" stroke-linejoin="round"/>
</svg>
